<mxfile host="app.diagrams.net" modified="2021-08-08T08:02:06.993Z" agent="5.0 (Windows)" etag="slrD-0j3cEnTBTwmfLuE" version="14.9.5" type="github">
  <diagram id="6a731a19-8d31-9384-78a2-239565b7b9f0" name="Page-1">
    <mxGraphModel dx="598" dy="810" grid="1" gridSize="10" guides="1" tooltips="1" connect="1" arrows="1" fold="1" page="1" pageScale="1" pageWidth="1169" pageHeight="827" background="none" math="0" shadow="0">
      <root>
        <mxCell id="0" />
        <mxCell id="1" parent="0" />
        <mxCell id="k4lBBu5_LCIpSnBgb268-116" value="" style="points=[[0.25,0,0],[0.5,0,0],[0.75,0,0],[1,0.25,0],[1,0.5,0],[1,0.75,0],[0.75,1,0],[0.5,1,0],[0.25,1,0],[0,0.75,0],[0,0.5,0],[0,0.25,0]];rounded=0;arcSize=10;dashed=1;strokeWidth=2;glass=0;strokeColor=#00FFFF;fillColor=#F0FFFE;" vertex="1" parent="1">
          <mxGeometry x="400" y="440" width="360" height="1210" as="geometry" />
        </mxCell>
        <mxCell id="k4lBBu5_LCIpSnBgb268-108" value="" style="points=[[0.25,0,0],[0.5,0,0],[0.75,0,0],[1,0.25,0],[1,0.5,0],[1,0.75,0],[0.75,1,0],[0.5,1,0],[0.25,1,0],[0,0.75,0],[0,0.5,0],[0,0.25,0]];rounded=1;arcSize=10;dashed=1;strokeColor=#36393d;dashPattern=8 3 1 3;strokeWidth=2;fillColor=#EEE0DD;" vertex="1" parent="1">
          <mxGeometry x="426.25" y="450" width="173.75" height="380" as="geometry" />
        </mxCell>
        <mxCell id="k4lBBu5_LCIpSnBgb268-59" style="edgeStyle=orthogonalEdgeStyle;rounded=0;orthogonalLoop=1;jettySize=auto;html=1;entryX=0.59;entryY=-0.067;entryDx=0;entryDy=0;entryPerimeter=0;" edge="1" parent="1" source="k4lBBu5_LCIpSnBgb268-56" target="k4lBBu5_LCIpSnBgb268-57">
          <mxGeometry relative="1" as="geometry" />
        </mxCell>
        <mxCell id="k4lBBu5_LCIpSnBgb268-60" style="edgeStyle=orthogonalEdgeStyle;rounded=0;orthogonalLoop=1;jettySize=auto;html=1;" edge="1" parent="1" source="k4lBBu5_LCIpSnBgb268-56" target="k4lBBu5_LCIpSnBgb268-58">
          <mxGeometry relative="1" as="geometry" />
        </mxCell>
        <mxCell id="k4lBBu5_LCIpSnBgb268-56" value="&lt;div&gt;认证服务&lt;/div&gt;" style="strokeWidth=2;html=1;shape=mxgraph.flowchart.terminator;whiteSpace=wrap;" vertex="1" parent="1">
          <mxGeometry x="270" y="70" width="100" height="40" as="geometry" />
        </mxCell>
        <mxCell id="k4lBBu5_LCIpSnBgb268-57" value="&lt;div&gt;登录页面&lt;/div&gt;&lt;div&gt;login&lt;/div&gt;" style="shape=parallelogram;html=1;strokeWidth=2;perimeter=parallelogramPerimeter;whiteSpace=wrap;rounded=1;arcSize=12;size=0.23;" vertex="1" parent="1">
          <mxGeometry x="60" y="190" width="100" height="60" as="geometry" />
        </mxCell>
        <mxCell id="k4lBBu5_LCIpSnBgb268-70" value="" style="edgeStyle=orthogonalEdgeStyle;rounded=0;orthogonalLoop=1;jettySize=auto;html=1;" edge="1" parent="1" source="k4lBBu5_LCIpSnBgb268-58" target="k4lBBu5_LCIpSnBgb268-61">
          <mxGeometry relative="1" as="geometry" />
        </mxCell>
        <mxCell id="k4lBBu5_LCIpSnBgb268-58" value="&lt;div&gt;注册页面&lt;/div&gt;&lt;div&gt;reg&lt;br&gt;&lt;/div&gt;" style="shape=parallelogram;html=1;strokeWidth=2;perimeter=parallelogramPerimeter;whiteSpace=wrap;rounded=1;arcSize=12;size=0.23;" vertex="1" parent="1">
          <mxGeometry x="437.5" y="190" width="100" height="60" as="geometry" />
        </mxCell>
        <mxCell id="k4lBBu5_LCIpSnBgb268-97" style="edgeStyle=orthogonalEdgeStyle;rounded=0;orthogonalLoop=1;jettySize=auto;html=1;exitX=0.5;exitY=1;exitDx=0;exitDy=0;entryX=0.5;entryY=0;entryDx=0;entryDy=0;" edge="1" parent="1" source="k4lBBu5_LCIpSnBgb268-61" target="k4lBBu5_LCIpSnBgb268-63">
          <mxGeometry relative="1" as="geometry">
            <mxPoint x="487.5" y="414" as="targetPoint" />
          </mxGeometry>
        </mxCell>
        <mxCell id="k4lBBu5_LCIpSnBgb268-61" value="&lt;div&gt;填写表单信息&lt;/div&gt;&lt;div&gt;用户名username：&lt;/div&gt;&lt;div&gt;密码posword：&lt;/div&gt;&lt;div&gt;手机号phone：&lt;/div&gt;&lt;div&gt;验证码code：&lt;br&gt;&lt;/div&gt;&lt;div&gt;&lt;br&gt;&lt;/div&gt;" style="rounded=1;whiteSpace=wrap;html=1;absoluteArcSize=1;arcSize=14;strokeWidth=2;" vertex="1" parent="1">
          <mxGeometry x="410" y="290" width="155" height="90" as="geometry" />
        </mxCell>
        <mxCell id="k4lBBu5_LCIpSnBgb268-62" style="edgeStyle=orthogonalEdgeStyle;rounded=0;orthogonalLoop=1;jettySize=auto;html=1;exitX=0.5;exitY=1;exitDx=0;exitDy=0;" edge="1" parent="1" source="k4lBBu5_LCIpSnBgb268-61" target="k4lBBu5_LCIpSnBgb268-61">
          <mxGeometry relative="1" as="geometry" />
        </mxCell>
        <mxCell id="k4lBBu5_LCIpSnBgb268-66" value="" style="edgeStyle=orthogonalEdgeStyle;rounded=0;orthogonalLoop=1;jettySize=auto;html=1;" edge="1" parent="1" source="k4lBBu5_LCIpSnBgb268-63" target="k4lBBu5_LCIpSnBgb268-65">
          <mxGeometry relative="1" as="geometry" />
        </mxCell>
        <mxCell id="k4lBBu5_LCIpSnBgb268-73" style="edgeStyle=orthogonalEdgeStyle;rounded=0;orthogonalLoop=1;jettySize=auto;html=1;exitX=1;exitY=0.5;exitDx=0;exitDy=0;entryX=1;entryY=0.25;entryDx=0;entryDy=0;" edge="1" parent="1" source="k4lBBu5_LCIpSnBgb268-63" target="k4lBBu5_LCIpSnBgb268-61">
          <mxGeometry relative="1" as="geometry">
            <Array as="points">
              <mxPoint x="620" y="528" />
              <mxPoint x="620" y="313" />
            </Array>
          </mxGeometry>
        </mxCell>
        <mxCell id="k4lBBu5_LCIpSnBgb268-63" value="用户名密码是否为空，字符数是否满足要求" style="rhombus;whiteSpace=wrap;html=1;rounded=1;strokeWidth=2;arcSize=14;" vertex="1" parent="1">
          <mxGeometry x="421.25" y="480" width="132.5" height="96" as="geometry" />
        </mxCell>
        <mxCell id="k4lBBu5_LCIpSnBgb268-68" value="" style="edgeStyle=orthogonalEdgeStyle;rounded=0;orthogonalLoop=1;jettySize=auto;html=1;" edge="1" parent="1" source="k4lBBu5_LCIpSnBgb268-65" target="k4lBBu5_LCIpSnBgb268-67">
          <mxGeometry relative="1" as="geometry" />
        </mxCell>
        <mxCell id="k4lBBu5_LCIpSnBgb268-74" style="edgeStyle=orthogonalEdgeStyle;rounded=0;orthogonalLoop=1;jettySize=auto;html=1;exitX=1;exitY=0.5;exitDx=0;exitDy=0;" edge="1" parent="1" source="k4lBBu5_LCIpSnBgb268-65">
          <mxGeometry relative="1" as="geometry">
            <mxPoint x="620" y="530" as="targetPoint" />
          </mxGeometry>
        </mxCell>
        <mxCell id="k4lBBu5_LCIpSnBgb268-65" value="&lt;div&gt;手机号是否满足要求&lt;/div&gt;" style="rhombus;whiteSpace=wrap;html=1;rounded=1;strokeWidth=2;arcSize=14;" vertex="1" parent="1">
          <mxGeometry x="447.5" y="610" width="80" height="80" as="geometry" />
        </mxCell>
        <mxCell id="k4lBBu5_LCIpSnBgb268-75" style="edgeStyle=orthogonalEdgeStyle;rounded=0;orthogonalLoop=1;jettySize=auto;html=1;exitX=1;exitY=0.5;exitDx=0;exitDy=0;" edge="1" parent="1" source="k4lBBu5_LCIpSnBgb268-67">
          <mxGeometry relative="1" as="geometry">
            <mxPoint x="620" y="650" as="targetPoint" />
          </mxGeometry>
        </mxCell>
        <mxCell id="k4lBBu5_LCIpSnBgb268-119" style="edgeStyle=orthogonalEdgeStyle;rounded=0;orthogonalLoop=1;jettySize=auto;html=1;" edge="1" parent="1" source="k4lBBu5_LCIpSnBgb268-67" target="k4lBBu5_LCIpSnBgb268-118">
          <mxGeometry relative="1" as="geometry" />
        </mxCell>
        <mxCell id="k4lBBu5_LCIpSnBgb268-67" value="验证码是否为空" style="rhombus;whiteSpace=wrap;html=1;rounded=1;strokeWidth=2;arcSize=14;" vertex="1" parent="1">
          <mxGeometry x="447.5" y="730" width="80" height="80" as="geometry" />
        </mxCell>
        <mxCell id="k4lBBu5_LCIpSnBgb268-77" value="是" style="text;html=1;align=center;verticalAlign=middle;resizable=0;points=[];autosize=1;strokeColor=none;" vertex="1" parent="1">
          <mxGeometry x="485" y="580" width="30" height="20" as="geometry" />
        </mxCell>
        <mxCell id="k4lBBu5_LCIpSnBgb268-78" value="是" style="text;html=1;align=center;verticalAlign=middle;resizable=0;points=[];autosize=1;strokeColor=none;" vertex="1" parent="1">
          <mxGeometry x="485" y="690" width="30" height="20" as="geometry" />
        </mxCell>
        <mxCell id="k4lBBu5_LCIpSnBgb268-79" value="否" style="text;html=1;align=center;verticalAlign=middle;resizable=0;points=[];autosize=1;strokeColor=none;" vertex="1" parent="1">
          <mxGeometry x="555" y="750" width="30" height="20" as="geometry" />
        </mxCell>
        <mxCell id="k4lBBu5_LCIpSnBgb268-80" value="否" style="text;html=1;align=center;verticalAlign=middle;resizable=0;points=[];autosize=1;strokeColor=none;" vertex="1" parent="1">
          <mxGeometry x="553.75" y="630" width="30" height="20" as="geometry" />
        </mxCell>
        <mxCell id="k4lBBu5_LCIpSnBgb268-81" value="否" style="text;html=1;align=center;verticalAlign=middle;resizable=0;points=[];autosize=1;strokeColor=none;" vertex="1" parent="1">
          <mxGeometry x="555" y="510" width="30" height="20" as="geometry" />
        </mxCell>
        <mxCell id="k4lBBu5_LCIpSnBgb268-113" style="edgeStyle=orthogonalEdgeStyle;rounded=0;orthogonalLoop=1;jettySize=auto;html=1;entryX=1;entryY=0.25;entryDx=0;entryDy=0;" edge="1" parent="1" source="k4lBBu5_LCIpSnBgb268-116" target="k4lBBu5_LCIpSnBgb268-57">
          <mxGeometry relative="1" as="geometry">
            <Array as="points">
              <mxPoint x="250" y="580" />
              <mxPoint x="250" y="207" />
            </Array>
          </mxGeometry>
        </mxCell>
        <mxCell id="k4lBBu5_LCIpSnBgb268-111" value="&lt;div&gt;JSR303注解校&lt;/div&gt;&lt;div&gt;验表单内容&lt;/div&gt;" style="text;html=1;align=center;verticalAlign=middle;resizable=0;points=[];autosize=1;strokeColor=#b85450;fillColor=#f8cecc;" vertex="1" parent="1">
          <mxGeometry x="500" y="460" width="100" height="30" as="geometry" />
        </mxCell>
        <mxCell id="k4lBBu5_LCIpSnBgb268-112" value="注册成功" style="text;html=1;align=center;verticalAlign=middle;resizable=0;points=[];autosize=1;strokeColor=none;" vertex="1" parent="1">
          <mxGeometry x="330" y="560" width="60" height="20" as="geometry" />
        </mxCell>
        <mxCell id="k4lBBu5_LCIpSnBgb268-133" style="edgeStyle=orthogonalEdgeStyle;rounded=0;orthogonalLoop=1;jettySize=auto;html=1;exitX=0.5;exitY=1;exitDx=0;exitDy=0;entryX=0.5;entryY=0;entryDx=0;entryDy=0;entryPerimeter=0;" edge="1" parent="1" source="k4lBBu5_LCIpSnBgb268-117" target="k4lBBu5_LCIpSnBgb268-130">
          <mxGeometry relative="1" as="geometry" />
        </mxCell>
        <mxCell id="k4lBBu5_LCIpSnBgb268-117" value="&lt;div&gt;获取redis缓存中的key：value&lt;/div&gt;&lt;div&gt;key是手机号&lt;/div&gt;&lt;div&gt;value是验证码&lt;br&gt;&lt;/div&gt;" style="shape=parallelogram;perimeter=parallelogramPerimeter;whiteSpace=wrap;html=1;fixedSize=1;rounded=0;glass=1;strokeWidth=2;" vertex="1" parent="1">
          <mxGeometry x="427.5" y="990" width="120" height="60" as="geometry" />
        </mxCell>
        <mxCell id="k4lBBu5_LCIpSnBgb268-122" style="edgeStyle=orthogonalEdgeStyle;rounded=0;orthogonalLoop=1;jettySize=auto;html=1;exitX=0.5;exitY=1;exitDx=0;exitDy=0;entryX=0.5;entryY=0;entryDx=0;entryDy=0;" edge="1" parent="1" source="k4lBBu5_LCIpSnBgb268-118" target="k4lBBu5_LCIpSnBgb268-117">
          <mxGeometry relative="1" as="geometry" />
        </mxCell>
        <mxCell id="k4lBBu5_LCIpSnBgb268-128" style="edgeStyle=orthogonalEdgeStyle;rounded=0;orthogonalLoop=1;jettySize=auto;html=1;exitX=1;exitY=0.5;exitDx=0;exitDy=0;entryX=0.54;entryY=0.883;entryDx=0;entryDy=0;entryPerimeter=0;" edge="1" parent="1" source="k4lBBu5_LCIpSnBgb268-118" target="k4lBBu5_LCIpSnBgb268-126">
          <mxGeometry relative="1" as="geometry">
            <Array as="points">
              <mxPoint x="694" y="900" />
            </Array>
          </mxGeometry>
        </mxCell>
        <mxCell id="k4lBBu5_LCIpSnBgb268-118" value="判断手机获取的验证码在redis中是否为空" style="rhombus;whiteSpace=wrap;html=1;rounded=0;glass=1;strokeColor=#000000;strokeWidth=2;" vertex="1" parent="1">
          <mxGeometry x="442.5" y="860" width="90" height="80" as="geometry" />
        </mxCell>
        <mxCell id="k4lBBu5_LCIpSnBgb268-121" value="是" style="text;html=1;align=center;verticalAlign=middle;resizable=0;points=[];autosize=1;strokeColor=none;" vertex="1" parent="1">
          <mxGeometry x="555" y="880" width="30" height="20" as="geometry" />
        </mxCell>
        <mxCell id="k4lBBu5_LCIpSnBgb268-123" value="否" style="text;html=1;align=center;verticalAlign=middle;resizable=0;points=[];autosize=1;strokeColor=none;" vertex="1" parent="1">
          <mxGeometry x="485" y="950" width="30" height="20" as="geometry" />
        </mxCell>
        <mxCell id="k4lBBu5_LCIpSnBgb268-129" style="edgeStyle=orthogonalEdgeStyle;rounded=0;orthogonalLoop=1;jettySize=auto;html=1;exitX=0.5;exitY=0;exitDx=0;exitDy=0;exitPerimeter=0;entryX=1;entryY=0.5;entryDx=0;entryDy=0;" edge="1" parent="1" source="k4lBBu5_LCIpSnBgb268-126" target="k4lBBu5_LCIpSnBgb268-58">
          <mxGeometry relative="1" as="geometry">
            <Array as="points">
              <mxPoint x="690" y="220" />
            </Array>
          </mxGeometry>
        </mxCell>
        <mxCell id="k4lBBu5_LCIpSnBgb268-126" value="提示”验证码错误，重新填写验证码“" style="strokeWidth=2;html=1;shape=mxgraph.flowchart.document2;whiteSpace=wrap;size=0.25;rounded=0;glass=1;" vertex="1" parent="1">
          <mxGeometry x="640" y="740" width="100" height="60" as="geometry" />
        </mxCell>
        <mxCell id="k4lBBu5_LCIpSnBgb268-135" style="edgeStyle=orthogonalEdgeStyle;rounded=0;orthogonalLoop=1;jettySize=auto;html=1;exitX=0.5;exitY=1;exitDx=0;exitDy=0;exitPerimeter=0;entryX=0.5;entryY=0;entryDx=0;entryDy=0;" edge="1" parent="1" source="k4lBBu5_LCIpSnBgb268-130" target="k4lBBu5_LCIpSnBgb268-131">
          <mxGeometry relative="1" as="geometry" />
        </mxCell>
        <mxCell id="k4lBBu5_LCIpSnBgb268-137" style="edgeStyle=orthogonalEdgeStyle;rounded=0;orthogonalLoop=1;jettySize=auto;html=1;exitX=1;exitY=0.5;exitDx=0;exitDy=0;exitPerimeter=0;" edge="1" parent="1" source="k4lBBu5_LCIpSnBgb268-130">
          <mxGeometry relative="1" as="geometry">
            <mxPoint x="690" y="900" as="targetPoint" />
          </mxGeometry>
        </mxCell>
        <mxCell id="k4lBBu5_LCIpSnBgb268-130" value="判断表单输入的验证码和redis中的是否相同" style="strokeWidth=2;html=1;shape=mxgraph.flowchart.decision;whiteSpace=wrap;rounded=0;glass=1;" vertex="1" parent="1">
          <mxGeometry x="428.75" y="1110" width="117.5" height="80" as="geometry" />
        </mxCell>
        <mxCell id="k4lBBu5_LCIpSnBgb268-149" value="" style="edgeStyle=orthogonalEdgeStyle;rounded=0;orthogonalLoop=1;jettySize=auto;html=1;" edge="1" parent="1" source="k4lBBu5_LCIpSnBgb268-131" target="k4lBBu5_LCIpSnBgb268-148">
          <mxGeometry relative="1" as="geometry" />
        </mxCell>
        <mxCell id="k4lBBu5_LCIpSnBgb268-131" value="删除redis中缓存的验证码" style="rounded=1;whiteSpace=wrap;html=1;absoluteArcSize=1;arcSize=14;strokeWidth=2;glass=0;fillColor=#FFFFFF;" vertex="1" parent="1">
          <mxGeometry x="437.5" y="1241" width="100" height="60" as="geometry" />
        </mxCell>
        <mxCell id="k4lBBu5_LCIpSnBgb268-136" value="是" style="text;html=1;align=center;verticalAlign=middle;resizable=0;points=[];autosize=1;strokeColor=none;" vertex="1" parent="1">
          <mxGeometry x="485" y="1210" width="30" height="20" as="geometry" />
        </mxCell>
        <mxCell id="k4lBBu5_LCIpSnBgb268-138" value="否" style="text;html=1;align=center;verticalAlign=middle;resizable=0;points=[];autosize=1;strokeColor=none;" vertex="1" parent="1">
          <mxGeometry x="555" y="1130" width="30" height="20" as="geometry" />
        </mxCell>
        <mxCell id="k4lBBu5_LCIpSnBgb268-144" value="防止一个手机号重复&#xa;使用相同的验证码" style="text;strokeColor=none;fillColor=none;spacingLeft=4;spacingRight=4;overflow=hidden;rotatable=0;points=[[0,0.5],[1,0.5]];portConstraint=eastwest;fontSize=12;rounded=0;glass=0;" vertex="1" parent="1">
          <mxGeometry x="570" y="1241" width="145" height="49" as="geometry" />
        </mxCell>
        <mxCell id="k4lBBu5_LCIpSnBgb268-145" value="令牌机制" style="strokeWidth=1;shadow=0;dashed=0;align=center;html=1;shape=mxgraph.mockup.text.callout;linkText=;textSize=17;textColor=#666666;callDir=NE;callStyle=line;fontSize=17;fontColor=#666666;align=right;verticalAlign=top;strokeColor=#666666;rounded=0;glass=0;fillColor=#EEE0DD;gradientColor=none;" vertex="1" parent="1">
          <mxGeometry x="537.5" y="1200" width="120" height="46.5" as="geometry" />
        </mxCell>
        <mxCell id="k4lBBu5_LCIpSnBgb268-146" value="将用户注册的表单信息（用户名，密码，手机号）存入数据库" style="rounded=1;whiteSpace=wrap;html=1;strokeWidth=2;fillColor=#FFFFFF;glass=0;arcSize=14;" vertex="1" parent="1">
          <mxGeometry x="427.5" y="1470" width="120" height="60" as="geometry" />
        </mxCell>
        <mxCell id="k4lBBu5_LCIpSnBgb268-154" style="edgeStyle=orthogonalEdgeStyle;rounded=0;orthogonalLoop=1;jettySize=auto;html=1;exitX=0;exitY=0.5;exitDx=0;exitDy=0;entryX=0.52;entryY=0.95;entryDx=0;entryDy=0;entryPerimeter=0;" edge="1" parent="1" source="k4lBBu5_LCIpSnBgb268-148" target="k4lBBu5_LCIpSnBgb268-151">
          <mxGeometry relative="1" as="geometry" />
        </mxCell>
        <mxCell id="k4lBBu5_LCIpSnBgb268-160" style="edgeStyle=orthogonalEdgeStyle;rounded=0;orthogonalLoop=1;jettySize=auto;html=1;exitX=0.5;exitY=1;exitDx=0;exitDy=0;entryX=0.5;entryY=0;entryDx=0;entryDy=0;" edge="1" parent="1" source="k4lBBu5_LCIpSnBgb268-148" target="k4lBBu5_LCIpSnBgb268-146">
          <mxGeometry relative="1" as="geometry" />
        </mxCell>
        <mxCell id="k4lBBu5_LCIpSnBgb268-148" value="数据库中是否存在注册的手机号和用户名" style="rhombus;whiteSpace=wrap;html=1;rounded=1;strokeWidth=2;fillColor=#FFFFFF;glass=0;arcSize=14;" vertex="1" parent="1">
          <mxGeometry x="425.75" y="1340" width="123.5" height="90" as="geometry" />
        </mxCell>
        <mxCell id="k4lBBu5_LCIpSnBgb268-153" value="" style="edgeStyle=orthogonalEdgeStyle;rounded=0;orthogonalLoop=1;jettySize=auto;html=1;" edge="1" parent="1" source="k4lBBu5_LCIpSnBgb268-151" target="k4lBBu5_LCIpSnBgb268-152">
          <mxGeometry relative="1" as="geometry" />
        </mxCell>
        <mxCell id="k4lBBu5_LCIpSnBgb268-151" value="用户名或手机号已被注册" style="strokeWidth=2;html=1;shape=mxgraph.flowchart.document2;whiteSpace=wrap;size=0.25;rounded=0;glass=0;gradientColor=none;fillColor=none;" vertex="1" parent="1">
          <mxGeometry x="240" y="1120" width="100" height="60" as="geometry" />
        </mxCell>
        <mxCell id="k4lBBu5_LCIpSnBgb268-155" style="edgeStyle=orthogonalEdgeStyle;rounded=0;orthogonalLoop=1;jettySize=auto;html=1;exitX=0.5;exitY=0;exitDx=0;exitDy=0;entryX=0;entryY=0.5;entryDx=0;entryDy=0;" edge="1" parent="1" source="k4lBBu5_LCIpSnBgb268-152" target="k4lBBu5_LCIpSnBgb268-58">
          <mxGeometry relative="1" as="geometry">
            <Array as="points">
              <mxPoint x="290" y="220" />
            </Array>
          </mxGeometry>
        </mxCell>
        <mxCell id="k4lBBu5_LCIpSnBgb268-157" style="edgeStyle=orthogonalEdgeStyle;rounded=0;orthogonalLoop=1;jettySize=auto;html=1;exitX=0;exitY=0.5;exitDx=0;exitDy=0;entryX=1;entryY=0.5;entryDx=0;entryDy=0;" edge="1" parent="1" source="k4lBBu5_LCIpSnBgb268-152" target="k4lBBu5_LCIpSnBgb268-57">
          <mxGeometry relative="1" as="geometry">
            <Array as="points">
              <mxPoint x="210" y="1010" />
              <mxPoint x="210" y="220" />
            </Array>
          </mxGeometry>
        </mxCell>
        <mxCell id="k4lBBu5_LCIpSnBgb268-152" value="&lt;div&gt;重新输入？&lt;/div&gt;" style="rhombus;whiteSpace=wrap;html=1;rounded=0;strokeWidth=2;glass=0;fillColor=none;" vertex="1" parent="1">
          <mxGeometry x="250" y="970" width="80" height="80" as="geometry" />
        </mxCell>
        <mxCell id="k4lBBu5_LCIpSnBgb268-156" value="是" style="text;html=1;align=center;verticalAlign=middle;resizable=0;points=[];autosize=1;strokeColor=none;" vertex="1" parent="1">
          <mxGeometry x="285" y="940" width="30" height="20" as="geometry" />
        </mxCell>
        <mxCell id="k4lBBu5_LCIpSnBgb268-158" value="否" style="text;html=1;align=center;verticalAlign=middle;resizable=0;points=[];autosize=1;strokeColor=none;" vertex="1" parent="1">
          <mxGeometry x="215" y="980" width="30" height="20" as="geometry" />
        </mxCell>
        <mxCell id="k4lBBu5_LCIpSnBgb268-159" value="是" style="text;html=1;align=center;verticalAlign=middle;resizable=0;points=[];autosize=1;strokeColor=none;" vertex="1" parent="1">
          <mxGeometry x="395.75" y="1360" width="30" height="20" as="geometry" />
        </mxCell>
        <mxCell id="k4lBBu5_LCIpSnBgb268-161" value="否" style="text;html=1;align=center;verticalAlign=middle;resizable=0;points=[];autosize=1;strokeColor=none;" vertex="1" parent="1">
          <mxGeometry x="485" y="1440" width="30" height="20" as="geometry" />
        </mxCell>
      </root>
    </mxGraphModel>
  </diagram>
</mxfile>
